<?xml version="1.0" standalone="no"?>
<!DOCTYPE svg PUBLIC "-//W3C//DTD SVG 20010904//EN"
 "http://www.w3.org/TR/2001/REC-SVG-20010904/DTD/svg10.dtd">
<svg version="1.0" xmlns="http://www.w3.org/2000/svg"
 width="150.000000pt" height="150.000000pt" viewBox="0 0 150.000000 150.000000"
 preserveAspectRatio="xMidYMid meet">
<g transform="translate(0.000000,150.000000) scale(0.100000,-0.100000)"
fill="#000000" stroke="none">
<path d="M309 1277 c-24 -13 -57 -43 -74 -66 l-30 -43 0 -403 0 -403 30 -43
c17 -23 50 -53 74 -66 44 -23 46 -23 426 -23 380 0 382 0 426 23 24 13 58 43
74 66 l30 43 0 403 0 403 -30 43 c-16 23 -50 53 -74 66 -44 23 -46 23 -426 23
-380 0 -382 0 -426 -23z m821 -28 c0 -6 5 -7 10 -4 5 3 10 2 10 -3 0 -5 11
-15 25 -22 14 -7 23 -16 20 -18 -3 -3 3 -14 12 -25 16 -17 18 -53 21 -391 2
-270 0 -381 -9 -408 -16 -48 -57 -87 -105 -99 -22 -4 -196 -9 -389 -9 -318 0
-354 2 -390 19 -93 42 -95 54 -95 481 0 379 3 402 49 444 47 43 77 46 469 45
233 -1 372 -4 372 -10z"/>
<path d="M455 931 c-135 -84 -131 -265 7 -337 30 -16 105 -19 140 -5 54 21
114 97 124 159 10 65 -55 166 -124 193 -40 15 -115 10 -147 -10z m163 -41 c34
-21 72 -87 72 -125 0 -38 -37 -102 -72 -123 -126 -78 -276 57 -210 188 37 75
138 104 210 60z"/>
<path d="M862 934 c-12 -8 -22 -12 -22 -8 0 14 -57 -51 -75 -85 -36 -71 -25
-139 34 -200 46 -48 76 -61 137 -61 104 0 185 90 178 197 -2 29 -8 59 -13 65
-6 7 -22 27 -36 45 -14 18 -40 39 -57 48 -40 19 -117 19 -146 -1z m149 -47
c89 -59 89 -185 0 -244 -73 -49 -175 -20 -211 60 -24 53 -24 71 0 124 36 80
138 109 211 60z"/>
</g>
</svg>
