<?xml version="1.0" standalone="no"?>
<!DOCTYPE svg PUBLIC "-//W3C//DTD SVG 20010904//EN"
 "http://www.w3.org/TR/2001/REC-SVG-20010904/DTD/svg10.dtd">
<svg version="1.0" xmlns="http://www.w3.org/2000/svg"
 width="150.000000pt" height="150.000000pt" viewBox="0 0 150.000000 150.000000"
 preserveAspectRatio="xMidYMid meet">
<g transform="translate(0.000000,150.000000) scale(0.100000,-0.100000)"
fill="#000000" stroke="none">
<path d="M430 1329 c-105 -12 -191 -73 -236 -167 -26 -54 -32 -150 -29 -472 2
-271 4 -299 22 -340 44 -98 127 -162 234 -180 43 -8 172 -10 370 -8 304 3 304
3 371 36 75 37 110 72 147 152 26 55 26 55 26 405 0 350 0 350 -29 408 -35 68
-89 120 -154 149 -44 19 -69 20 -357 22 -170 1 -335 -1 -365 -5z m700 -58 c63
-35 104 -78 131 -135 29 -61 29 -61 29 -391 0 -325 -1 -331 -24 -380 -28 -60
-87 -116 -147 -139 -39 -15 -85 -17 -384 -14 -340 3 -340 3 -385 28 -58 33
-117 111 -131 175 -7 32 -9 162 -7 365 3 310 3 316 27 362 33 65 80 107 143
129 48 17 83 19 388 16 264 -1 340 -5 360 -16z"/>
<path d="M1031 1131 c-27 -27 -28 -82 -3 -104 44 -40 122 -7 122 51 0 40 -19
62 -61 68 -29 5 -41 2 -58 -15z"/>
<path d="M636 1030 c-69 -27 -141 -101 -167 -170 -27 -71 -23 -185 8 -245 95
-182 344 -223 488 -80 58 59 85 126 85 215 0 171 -118 291 -290 297 -56 2 -87
-2 -124 -17z m192 -86 c106 -44 161 -173 118 -275 -18 -44 -72 -98 -113 -115
-104 -44 -233 11 -277 118 -70 167 105 342 272 272z"/>
</g>
</svg>
