<svg version="1.0" xmlns="http://www.w3.org/2000/svg" width="150.000000pt" height="150.000000pt" viewBox="0 0 150.000000 150.000000" preserveAspectRatio="xMidYMid meet" style="width: 140.28px; height: auto;"> <g transform="translate(0.000000,150.000000) scale(0.100000,-0.100000)" fill="#000000" stroke="none" class=""> <path d="M439 1328 c-150 -14 -252 -116 -267 -267 -4 -36 -6 -200 -6 -364 l1 -297 32 -64 c35 -71 79 -112 158 -149 47 -21 57 -22 393 -22 l345 0 67 33 c75 37 110 72 147 152 l26 55 0 345 0 345 -27 57 c-35 75 -81 121 -152 154 l-57 26 -297 1 c-163 1 -327 -1 -363 -5z m701 -62 c49 -26 98 -74 123 -121 21 -38 22 -53 25 -380 3 -301 1 -345 -14 -384 -23 -61 -84 -124 -145 -150 -48 -21 -60 -22 -392 -19 -328 3 -344 4 -382 24 -45 25 -94 75 -122 125 -16 31 -18 63 -18 389 0 327 1 358 19 390 36 67 96 119 166 141 14 4 178 7 365 6 310 -2 343 -4 375 -21z" class="" stroke-width="1"></path> <path d="M1037 1130 c-51 -40 -23 -120 41 -120 33 0 72 32 72 60 0 27 -21 70 -34 70 -6 0 -20 3 -31 6 -13 3 -31 -3 -48 -16z m78 -30 c10 -11 13 -20 8 -20 -6 0 -13 -9 -16 -20 -6 -25 -38 -26 -60 -2 -14 15 -14 21 -4 34 11 14 30 25 48 27 3 1 14 -8 24 -19z" class=""></path> <path d="M640 1033 c-66 -24 -152 -114 -175 -182 -23 -69 -17 -179 12 -236 31 -60 100 -122 160 -145 78 -29 175 -27 239 5 114 57 174 151 174 275 0 171 -118 292 -290 297 -50 2 -90 -3 -120 -14z m228 -34 c48 -21 122 -92 122 -118 0 -9 5 -22 12 -29 6 -6 13 -17 14 -24 1 -7 3 -17 4 -23 1 -5 2 -40 1 -76 -1 -52 -6 -74 -25 -102 -13 -19 -22 -37 -20 -40 4 -4 -8 -15 -79 -73 -9 -8 -23 -14 -30 -14 -7 0 -17 -4 -22 -9 -11 -10 -137 -16 -170 -8 -39 10 -98 48 -136 89 -21 23 -37 43 -35 46 3 2 -2 19 -10 37 -23 55 -18 152 10 210 27 54 79 118 90 108 3 -3 6 -2 6 4 0 10 22 20 64 29 11 3 22 7 25 10 12 12 139 0 179 -17z" class="" stroke-width="1"></path> <path d="M685 980 c-4 -6 -11 -8 -16 -5 -5 4 -9 1 -9 -4 0 -6 -6 -11 -13 -11 -17 0 -108 -81 -111 -100 -2 -8 -8 -28 -14 -43 -15 -35 -15 -71 -1 -122 13 -48 60 -125 76 -125 6 0 13 -4 15 -8 2 -4 19 -18 39 -30 47 -28 146 -31 192 -4 67 37 94 65 125 131 33 72 27 141 -19 214 -19 29 -39 56 -46 60 -8 5 -10 13 -7 19 4 7 2 8 -4 4 -7 -4 -18 -4 -24 1 -47 30 -169 45 -183 23z m138 -33 c82 -35 136 -113 137 -198 0 -61 -20 -106 -67 -151 -46 -45 -79 -58 -144 -58 -145 0 -249 155 -193 288 43 104 168 160 267 119z" class="" stroke-width="1"></path>  </g> </svg>