<?xml version="1.0" standalone="no"?>
<!DOCTYPE svg PUBLIC "-//W3C//DTD SVG 20010904//EN"
 "http://www.w3.org/TR/2001/REC-SVG-20010904/DTD/svg10.dtd">
<svg version="1.0" xmlns="http://www.w3.org/2000/svg"
 width="150.000000pt" height="150.000000pt" viewBox="0 0 150.000000 150.000000"
 preserveAspectRatio="xMidYMid meet">
<g transform="translate(0.000000,150.000000) scale(0.100000,-0.100000)"
fill="#000000" stroke="none">
<path d="M351 1219 c-162 -11 -207 -37 -232 -135 -17 -64 -23 -441 -9 -551 16
-128 42 -175 112 -202 14 -5 138 -15 275 -22 287 -14 733 0 782 25 76 40 96
92 112 291 13 163 3 374 -22 467 -13 49 -52 94 -93 108 -77 25 -659 37 -925
19z m774 -45 c61 -4 124 -12 142 -19 40 -17 60 -56 73 -142 12 -88 12 -386 -1
-483 -5 -41 -10 -81 -11 -87 -1 -7 -5 -13 -10 -13 -4 0 -7 -5 -5 -11 1 -7 -18
-22 -43 -35 -36 -18 -69 -24 -165 -30 -231 -15 -778 -3 -867 18 -39 9 -73 61
-85 133 -11 60 -14 411 -4 487 12 105 31 145 77 164 67 28 540 38 899 18z"/>
<path d="M570 958 c-18 -29 -20 -51 -20 -185 0 -165 7 -197 45 -215 21 -10 34
-6 92 24 38 19 88 45 113 58 82 42 159 95 172 118 10 20 8 26 -18 51 -16 16
-58 44 -94 64 -255 137 -258 137 -290 85z m68 -12 c20 -12 99 -56 175 -95 75
-40 137 -76 137 -80 0 -4 -24 -19 -52 -33 -103 -49 -268 -139 -273 -149 -4 -5
-12 -9 -18 -9 -9 0 -12 51 -12 195 0 107 1 195 3 195 1 0 19 -11 40 -24z"/>
</g>
</svg>
